<mxfile host="app.diagrams.net" modified="2023-05-04T01:42:46.402Z" agent="Mozilla/5.0 (Windows NT 10.0; Win64; x64) AppleWebKit/537.36 (KHTML, like Gecko) Chrome/112.0.0.0 Safari/537.36" etag="f0gLzR0tDV0wiwsByDOm" version="21.2.7" type="github">
  <diagram name="Página-1" id="kvOrPs9n3cCuiLqYlPqK">
    <mxGraphModel dx="1235" dy="728" grid="1" gridSize="10" guides="1" tooltips="1" connect="1" arrows="1" fold="1" page="1" pageScale="1" pageWidth="1169" pageHeight="827" math="0" shadow="0">
      <root>
        <mxCell id="0" />
        <mxCell id="1" parent="0" />
        <mxCell id="saOhNNOWypbbqMwhVQcl-1" value="DATAGRAMAS" style="rounded=1;whiteSpace=wrap;html=1;fillColor=#d5e8d4;strokeColor=#82b366;" vertex="1" parent="1">
          <mxGeometry x="816" y="90" width="120" height="60" as="geometry" />
        </mxCell>
        <mxCell id="saOhNNOWypbbqMwhVQcl-2" value="CIRCUITOS VIRTUALES" style="rounded=1;whiteSpace=wrap;html=1;fillColor=#f8cecc;strokeColor=#b85450;" vertex="1" parent="1">
          <mxGeometry x="80" y="90" width="120" height="60" as="geometry" />
        </mxCell>
        <mxCell id="saOhNNOWypbbqMwhVQcl-3" value="CONMUTACION DE PAQUETES" style="rounded=1;whiteSpace=wrap;html=1;fillColor=#dae8fc;strokeColor=#6c8ebf;" vertex="1" parent="1">
          <mxGeometry x="80" y="450" width="120" height="60" as="geometry" />
        </mxCell>
        <mxCell id="saOhNNOWypbbqMwhVQcl-4" value="CONMUTACION DE CIRCUITOS" style="rounded=1;whiteSpace=wrap;html=1;fillColor=#fff2cc;strokeColor=#d6b656;" vertex="1" parent="1">
          <mxGeometry x="816" y="450" width="120" height="60" as="geometry" />
        </mxCell>
        <mxCell id="saOhNNOWypbbqMwhVQcl-5" value="&lt;font style=&quot;border-color: var(--border-color); font-size: 14px;&quot;&gt;&quot;Frame Relay&quot;&lt;/font&gt;&lt;br style=&quot;border-color: var(--border-color);&quot;&gt;&lt;font style=&quot;border-color: var(--border-color);&quot;&gt;Retardo de fotograma&lt;/font&gt;" style="ellipse;whiteSpace=wrap;html=1;fillColor=#fff2cc;strokeColor=#d6b656;" vertex="1" parent="1">
          <mxGeometry x="230" y="20" width="160" height="60" as="geometry" />
        </mxCell>
        <mxCell id="saOhNNOWypbbqMwhVQcl-6" value="&lt;font style=&quot;font-size: 15px;&quot;&gt;&quot;ATM&quot;&lt;br&gt;&lt;/font&gt;Asynchronous Transfer Mode&lt;br&gt;&lt;font style=&quot;font-size: 8px;&quot;&gt;Modo de Transferencia Asíncrona&lt;/font&gt;" style="ellipse;whiteSpace=wrap;html=1;fillColor=#f8cecc;strokeColor=#b85450;" vertex="1" parent="1">
          <mxGeometry x="250" y="100" width="180" height="70" as="geometry" />
        </mxCell>
        <mxCell id="saOhNNOWypbbqMwhVQcl-7" value="X.25" style="ellipse;whiteSpace=wrap;html=1;fillColor=#f8cecc;strokeColor=#b85450;" vertex="1" parent="1">
          <mxGeometry x="210" y="180" width="80" height="60" as="geometry" />
        </mxCell>
        <mxCell id="saOhNNOWypbbqMwhVQcl-8" value="&lt;font style=&quot;font-size: 15px;&quot;&gt;&quot;MPLS&quot;&lt;br&gt;&lt;/font&gt;&lt;font style=&quot;&quot;&gt;&lt;font style=&quot;font-size: 12px;&quot;&gt;Multiprotocol Label Switching&lt;/font&gt;&lt;br&gt;&lt;font style=&quot;font-size: 8px;&quot;&gt;Cambio de etiquetas multiprotocolo&lt;/font&gt;&lt;br&gt;&lt;/font&gt;" style="ellipse;whiteSpace=wrap;html=1;fillColor=#dae8fc;strokeColor=#6c8ebf;" vertex="1" parent="1">
          <mxGeometry x="30" y="200" width="170" height="80" as="geometry" />
        </mxCell>
        <mxCell id="saOhNNOWypbbqMwhVQcl-9" value="&lt;font style=&quot;font-size: 14px;&quot;&gt;&quot;IP&quot;&lt;/font&gt;&lt;br&gt;Internet Protocol&lt;br&gt;&lt;font style=&quot;font-size: 8px;&quot;&gt;protocolo de Internet&lt;/font&gt;" style="ellipse;whiteSpace=wrap;html=1;fillColor=#dae8fc;strokeColor=#6c8ebf;" vertex="1" parent="1">
          <mxGeometry x="696" y="20" width="110" height="70" as="geometry" />
        </mxCell>
        <mxCell id="saOhNNOWypbbqMwhVQcl-10" value="&lt;font style=&quot;font-size: 14px;&quot;&gt;&quot;UDP&quot;&lt;/font&gt;&lt;br&gt;User Datagram Protocol&lt;br&gt;&lt;font style=&quot;font-size: 8px;&quot;&gt;Protocolo de datagramas de usuario&lt;/font&gt;" style="ellipse;whiteSpace=wrap;html=1;fillColor=#dae8fc;strokeColor=#6c8ebf;" vertex="1" parent="1">
          <mxGeometry x="540" y="70" width="170" height="80" as="geometry" />
        </mxCell>
        <mxCell id="saOhNNOWypbbqMwhVQcl-11" value="&lt;font style=&quot;border-color: var(--border-color); font-size: 14px;&quot;&gt;&quot;ICMP&quot;&lt;/font&gt;&lt;br style=&quot;border-color: var(--border-color);&quot;&gt;Internet Control Message Protocol&lt;br style=&quot;border-color: var(--border-color);&quot;&gt;&lt;font style=&quot;border-color: var(--border-color); font-size: 8px;&quot;&gt;Protocolo de mensajes de control de Internet&lt;/font&gt;" style="ellipse;whiteSpace=wrap;html=1;fillColor=#d5e8d4;strokeColor=#82b366;" vertex="1" parent="1">
          <mxGeometry x="560" y="160" width="200" height="80" as="geometry" />
        </mxCell>
        <mxCell id="saOhNNOWypbbqMwhVQcl-12" value="&lt;font style=&quot;font-size: 14px;&quot;&gt;&quot;RIP&quot;&lt;br&gt;&lt;/font&gt;&lt;font style=&quot;&quot;&gt;Routing Information Protocol&lt;br&gt;&lt;font style=&quot;font-size: 8px;&quot;&gt;Protocolo de información de enrutamiento&lt;/font&gt;&lt;br&gt;&lt;/font&gt;" style="ellipse;whiteSpace=wrap;html=1;fillColor=#d5e8d4;strokeColor=#82b366;" vertex="1" parent="1">
          <mxGeometry x="765" y="200" width="180" height="80" as="geometry" />
        </mxCell>
        <mxCell id="saOhNNOWypbbqMwhVQcl-13" value="&lt;font style=&quot;font-size: 14px;&quot;&gt;&quot;IP&quot;&lt;/font&gt;&lt;br&gt;Internet Protocol&lt;br&gt;&lt;font style=&quot;font-size: 8px;&quot;&gt;protocolo de Internet&lt;/font&gt;" style="ellipse;whiteSpace=wrap;html=1;fillColor=#d5e8d4;strokeColor=#82b366;" vertex="1" parent="1">
          <mxGeometry x="50" y="320" width="110" height="70" as="geometry" />
        </mxCell>
        <mxCell id="saOhNNOWypbbqMwhVQcl-14" value="&lt;font style=&quot;font-size: 14px;&quot;&gt;&quot;TCP&quot;&lt;/font&gt;&lt;br&gt;Transmission Control Protocol&lt;br&gt;&lt;font style=&quot;font-size: 8px;&quot;&gt;Protocolo de datagramas de usuario&lt;/font&gt;" style="ellipse;whiteSpace=wrap;html=1;fillColor=#dae8fc;strokeColor=#6c8ebf;" vertex="1" parent="1">
          <mxGeometry x="180" y="320" width="170" height="80" as="geometry" />
        </mxCell>
        <mxCell id="saOhNNOWypbbqMwhVQcl-15" value="&lt;font style=&quot;border-color: var(--border-color); font-size: 14px;&quot;&gt;&quot;UDP&quot;&lt;/font&gt;&lt;br style=&quot;border-color: var(--border-color);&quot;&gt;User Datagram Protocol&lt;br style=&quot;border-color: var(--border-color);&quot;&gt;&lt;font style=&quot;border-color: var(--border-color); font-size: 8px;&quot;&gt;Protocolo de datagramas de usuario&lt;/font&gt;" style="ellipse;whiteSpace=wrap;html=1;fillColor=#d5e8d4;strokeColor=#82b366;" vertex="1" parent="1">
          <mxGeometry x="330" y="390" width="200" height="80" as="geometry" />
        </mxCell>
        <mxCell id="saOhNNOWypbbqMwhVQcl-16" value="&quot;MPLS&quot;&lt;br&gt;&lt;font style=&quot;&quot;&gt;MultiProtocol Label Switching&lt;br&gt;&lt;font style=&quot;font-size: 8px;&quot;&gt;Conmutación de etiquetas multiprotocolo&lt;/font&gt;&lt;br&gt;&lt;/font&gt;" style="ellipse;whiteSpace=wrap;html=1;fillColor=#f8cecc;strokeColor=#b85450;" vertex="1" parent="1">
          <mxGeometry x="306" y="490" width="180" height="80" as="geometry" />
        </mxCell>
        <mxCell id="saOhNNOWypbbqMwhVQcl-17" value="&lt;font style=&quot;font-size: 14px;&quot;&gt;&quot;Frame Relay&quot;&lt;/font&gt;&lt;br&gt;&lt;font style=&quot;&quot;&gt;Retardo de fotograma&lt;br&gt;&lt;/font&gt;" style="ellipse;whiteSpace=wrap;html=1;fillColor=#f8cecc;strokeColor=#b85450;" vertex="1" parent="1">
          <mxGeometry x="595" y="480" width="180" height="80" as="geometry" />
        </mxCell>
        <mxCell id="saOhNNOWypbbqMwhVQcl-18" value="&lt;font style=&quot;border-color: var(--border-color); font-size: 14px;&quot;&gt;&quot;ISDN&quot;&lt;/font&gt;&lt;br style=&quot;border-color: var(--border-color);&quot;&gt;Integrated Services Digital Network&lt;br style=&quot;border-color: var(--border-color);&quot;&gt;&lt;font style=&quot;border-color: var(--border-color); font-size: 8px;&quot;&gt;Red Digital de Servicios Integrados&lt;/font&gt;" style="ellipse;whiteSpace=wrap;html=1;fillColor=#fff2cc;strokeColor=#d6b656;" vertex="1" parent="1">
          <mxGeometry x="575" y="370" width="200" height="80" as="geometry" />
        </mxCell>
        <mxCell id="saOhNNOWypbbqMwhVQcl-19" value="&lt;font style=&quot;font-size: 14px;&quot;&gt;&quot;PSTN&quot;&lt;/font&gt;&lt;br&gt;Red telefónica conmutada&lt;br&gt;&lt;font style=&quot;font-size: 8px;&quot;&gt;Red Telefónica Conmutada&lt;/font&gt;" style="ellipse;whiteSpace=wrap;html=1;fillColor=#fff2cc;strokeColor=#d6b656;" vertex="1" parent="1">
          <mxGeometry x="799" y="340" width="154" height="70" as="geometry" />
        </mxCell>
      </root>
    </mxGraphModel>
  </diagram>
</mxfile>
